<?xml version="1.0" encoding="UTF-8" standalone="no"?>
<!-- Created with Inkscape (http://www.inkscape.org/) -->

<svg
   width="999.133"
   height="389.41864"
   viewBox="0 0 264.35395 103.03368"
   version="1.1"
   id="svg5"
   inkscape:version="1.1.1 (3bf5ae0d25, 2021-09-20)"
   sodipodi:docname="hambuguer.svg"
   xmlns:inkscape="http://www.inkscape.org/namespaces/inkscape"
   xmlns:sodipodi="http://sodipodi.sourceforge.net/DTD/sodipodi-0.dtd"
   xmlns="http://www.w3.org/2000/svg"
   xmlns:svg="http://www.w3.org/2000/svg">
  <sodipodi:namedview
     id="namedview7"
     pagecolor="#505050"
     bordercolor="#eeeeee"
     borderopacity="1"
     inkscape:pageshadow="0"
     inkscape:pageopacity="0"
     inkscape:pagecheckerboard="0"
     inkscape:document-units="mm"
     showgrid="false"
     units="px"
     showborder="false"
     inkscape:snap-bbox="true"
     inkscape:snap-bbox-edge-midpoints="true"
     inkscape:object-nodes="true"
     inkscape:snap-others="false"
     inkscape:snap-nodes="true"
     inkscape:bbox-paths="true"
     inkscape:bbox-nodes="true"
     inkscape:snap-bbox-midpoints="true"
     inkscape:object-paths="true"
     inkscape:snap-intersection-paths="true"
     inkscape:snap-midpoints="true"
     inkscape:snap-smooth-nodes="true"
     inkscape:snap-global="true"
     inkscape:zoom="0.5"
     inkscape:cx="784"
     inkscape:cy="385"
     inkscape:window-width="1861"
     inkscape:window-height="1055"
     inkscape:window-x="59"
     inkscape:window-y="0"
     inkscape:window-maximized="1"
     inkscape:current-layer="layer2"
     fit-margin-top="0"
     fit-margin-left="0"
     fit-margin-right="0"
     fit-margin-bottom="0" />
  <defs
     id="defs2" />
  <g
     inkscape:groupmode="layer"
     id="layer2"
     inkscape:label="patty"
     style="display:inline"
     transform="translate(-28.042648,-76.21395)">
    <path
       id="patty"
       style="display:inline;opacity:1;fill:#552200;stroke:#212121;stroke-width:0;stroke-linecap:square;stroke-linejoin:round;stroke-miterlimit:46.9;paint-order:stroke fill markers"
       d="M 41.850332,126.29926 H 278.58891 c 7.64945,0 13.80768,6.15823 13.80768,13.80769 v 2.93254 c 0,7.64945 -6.15823,13.80768 -13.80768,13.80768 H 41.850332 c -7.649457,0 -13.807684,-6.15823 -13.807684,-13.80768 v -2.93254 c 0,-7.64946 6.158227,-13.80769 13.807684,-13.80769 z" />
  </g>
  <g
     inkscape:groupmode="layer"
     id="layer6"
     inkscape:label="cheese"
     style="display:inline"
     transform="translate(-28.042648,-76.21395)">
    <g
       id="cheese"
       transform="scale(0.26458333)">
      <path
         style="color:#000000;fill:#ffb500;stroke-width:0;stroke-linecap:square;stroke-linejoin:round;stroke-miterlimit:46.9;-inkscape-stroke:none;paint-order:stroke fill markers"
         d="m 148.60722,477.35155 c -20.9552,3.85752 -37.44983,20.11722 -41.59765,40.96679 1.92759,0.58784 4.09035,0.59928 5.93131,1.47123 0.29131,0.13798 0.77474,0.57868 0.77474,0.57868 0,0 0.53223,0.66201 0.53223,1.59462 v 35.91016 c 0,9.04525 7.15342,16.32617 16.03906,16.32617 14.82204,-6.05228 24.52506,-0.0513 35.47745,0.13107 6.68709,0 -0.27433,-18.89246 -0.27433,-27.93771 0,0 -2.06054,-17.77433 3.77679,-22.80263 3.5538,-3.06127 10.3955,-3.13357 14.06983,-0.21807 8.12336,6.44569 6.60065,30.40156 6.60065,30.40156 0.51562,9.03054 5.54471,14.53158 12.07031,16.32617 8.10348,2.22851 18.27598,-2.98256 23.24796,-9.75841 3.80731,-5.18862 1.7872,-12.526 1.7872,-19.22401 0,0 -1.77328,-13.56288 2.7562,-17.19139 10.83145,-8.67695 27.71835,3.57934 41.55768,2.53883 13.98193,-4.72533 7.60153,16.83897 8.07087,29.6799 0.33039,9.03922 5.38323,16.32618 12.07032,16.32618 6.68708,0 12.07031,-7.28092 12.07031,-16.32618 v -0.96875 c 1.28557,0.40143 2.65495,0.61914 4.07617,0.61914 h 4.28516 c 7.52172,10e-6 13.57812,-6.0564 13.57812,-13.57812 0,0 2.3658,-9.05372 6.01921,-11.20524 12.2727,-7.22746 30.65416,-6.98799 42.72436,0.57281 5.84607,3.66198 9.27987,18.49766 9.27987,18.49766 0,9.04526 5.38323,16.32618 12.07031,16.32618 4.62806,0 7.90468,14.24127 9.93143,9.0948 1.5563,6.57976 6.8249,-6.41121 12.21896,-6.41121 6.68709,0 12.07032,-7.28092 12.07032,-16.32617 0,0 -0.31435,-16.87603 5.44448,-21.52436 9.15755,-7.39166 25.77455,-8.17399 35.28366,-1.24045 5.69513,4.15259 5.75428,20.34684 5.75428,20.34684 0,9.04525 5.38323,16.32812 12.07031,16.32812 6.68708,0 12.07227,-7.28287 12.07227,-16.32812 v -5.37305 c 1.07624,0.36081 2.22695,0.56055 3.42773,0.56055 h 2.69141 c 13.65057,-1.9018 8.97677,-13.45128 10.94922,-15.75429 10.7736,-10.90572 26.16352,-0.22799 35.69153,7.30078 11.9265,9.8796 9.51959,38.95431 22.84167,39.49843 6.27406,0 11.40238,-6.40942 12.01172,-14.67187 2.15304,2.70991 5.04002,4.36718 8.22656,4.36718 6.68708,0 12.07227,-7.28287 12.07227,-16.32812 0,0 0.71244,-14.33733 5.77489,-18.18946 13.97548,-10.63425 40.84798,-14.98406 52.64698,-1.97694 0.37088,0.40886 -0.22266,1.64101 -0.22266,1.64101 0,6.05996 4.87754,10.93945 10.9375,10.93945 h 2.26563 c 6.05996,0 10.9375,-4.87949 10.9375,-10.93945 0,0 -0.20287,-1.28938 0.22266,-1.64101 2.95349,-2.44054 8.56685,-1.86311 11.47686,0.62912 5.16822,4.42623 4.23798,19.96892 4.23798,19.96892 0,9.3148 5.38323,16.8125 12.07031,16.8125 6.68709,0 12.07031,-7.4977 12.07031,-16.8125 0,0 -1.31325,-15.24841 3.72359,-19.58129 8.27861,-7.12157 24.16299,-8.00524 32.73722,-1.2425 5.84186,4.60765 4.37318,21.88824 4.37318,21.88824 0,9.04525 5.38323,16.32813 12.07031,16.32813 4.52452,0 8.45036,-3.33704 10.51758,-8.29492 4.91327,-2.06613 8.46094,-8.24659 8.46094,-15.58985 0,0 -0.32936,-10.39552 3.20987,-13.24185 10.59903,-8.52399 30.60963,-9.89764 40.79462,-0.883 5.37486,4.75724 2.15235,21.4255 2.15235,21.4255 -10e-6,9.04525 7.1756,15.55482 13.86269,15.55482 2.94318,0 5.63237,-1.41101 7.72265,-3.76172 v 1.42578 c 0,10.38738 5.38323,18.75 12.07032,18.75 6.68708,0 12.07031,-8.36262 12.07031,-18.75 V 523.1699 c 0,-1.35348 -1.52934,4.98222 -0.0449,6.61095 3.10091,3.40232 10.28313,-1.83378 13.75939,1.184 5.21257,4.52507 4.65662,20.17771 4.65662,20.17771 0,9.04525 5.38323,16.32813 12.07032,16.32813 6.68708,0 12.07031,-7.28288 12.07031,-16.32813 v -3.94531 c 1.78193,1.31477 3.98865,2.0918 6.38281,2.0918 h 2.66406 c 5.94916,0 10.73828,-4.78912 10.73828,-10.73829 0,0 -0.59057,-6.88365 1.71765,-8.76309 3.91984,-3.19169 11.28728,-3.08464 15.16386,0.15944 3.17785,2.65937 2.31967,12.21303 2.31967,12.21303 0,6.63042 5.33638,11.96875 11.96679,11.96875 h 14.50978 c 6.6304,0 11.9668,-5.33833 11.9668,-11.96875 0,0 0.7495,-9.21535 4.0682,-11.64017 3.6342,-2.65529 9.9703,-3.16601 13.4975,-0.37024 6.2541,4.9571 4.8249,23.44986 4.8249,23.44986 0,9.04525 5.3832,16.32617 12.0703,16.32617 6.6871,0 12.0703,-7.28092 12.0703,-16.32617 0,0 -1.1186,-17.19766 4.1987,-22.80959 1.0792,-1.13906 3.2286,-1.90283 4.577,-1.10042 6.568,3.9083 5.9235,22.15025 5.9235,22.15025 0,9.04525 5.3833,16.32617 12.0704,16.32617 6.687,0 12.0703,-7.28092 12.0703,-16.32617 V 519.2285 c 0,0 -3.0861,10.015 0.3926,10.55235 3.8377,0.59283 2.5854,-10.69851 3.9257,-10.96837 -3.9861,-21.08263 -20.5537,-37.57341 -41.6718,-41.46093 z"
         id="path13922"
         sodipodi:nodetypes="ccacssccsaasaasaccsscsssaasscssaassscscccccssaassssaasssaasscsaasscssssaassscsssaassssaasssaassscaccc" />
    </g>
  </g>
  <g
     inkscape:groupmode="layer"
     id="layer7"
     inkscape:label="Ketchup"
     style="display:inline"
     transform="translate(-28.042648,-76.21395)">
    <path
       id="Ketchup"
       style="opacity:1;fill:#aa0000;fill-opacity:1;stroke:#212121;stroke-width:0;stroke-linecap:square;stroke-linejoin:round;stroke-miterlimit:46.9;stroke-dasharray:none;paint-order:stroke fill markers"
       d="m 462.97656,477.30859 c -5.25107,0 -9.47851,4.70891 -9.47851,10.5586 v 26.20508 c 0,5.84968 4.22744,10.55859 9.47851,10.55859 0.519,0 1.02753,-0.0482 1.52344,-0.13672 1.7169,2.66871 4.52396,4.40234 7.70898,4.40234 2.1106,0 4.05515,-0.76092 5.62696,-2.05078 v 1.97657 c 0,5.84968 4.22744,10.55859 9.47851,10.55859 5.25108,0 9.47852,-4.70891 9.47852,-10.55859 v -26.20313 c 0,-5.84969 -4.22744,-10.56055 -9.47852,-10.56055 -2.11019,0 -4.0553,0.76332 -5.62695,2.05274 v -1.97656 c 0,-5.84969 -4.22744,-10.56055 -9.47852,-10.56055 -0.51898,0 -1.02754,0.0482 -1.52343,0.13672 -1.71698,-2.66792 -4.52451,-4.40235 -7.70899,-4.40235 z m -159.11718,1.39258 c -5.07252,0 -9.15626,4.08373 -9.15626,9.15625 v 11.0957 c -1.05101,-0.44552 -2.19199,-0.6914 -3.38671,-0.6914 -5.25108,0 -9.47852,4.70891 -9.47852,10.55859 v 26.20508 c 0,5.84969 4.22744,10.55859 9.47852,10.55859 5.25107,0 9.47851,-4.7089 9.47851,-10.55859 v -15.8125 c 0.79002,0.2787 1.63166,0.45371 2.50586,0.50586 v 12.48047 c 0,5.84968 4.22744,10.55859 9.47852,10.55859 5.25107,0 9.47851,-4.70891 9.47851,-10.55859 v -26.20508 c 0,-5.51823 -3.76326,-10.01908 -8.59765,-10.51172 v -7.625 c 0,-5.07252 -4.08373,-9.15625 -9.15625,-9.15625 z m 501.53906,0.26758 c -5.1986,0 -9.38477,4.18616 -9.38477,9.38477 v 23.2871 c 0,5.19861 4.18617,9.38477 9.38477,9.38477 h 0.18945 c 5.1986,0 9.38281,-4.18616 9.38281,-9.38477 v -23.2871 c 0,-5.19861 -4.18421,-9.38477 -9.38281,-9.38477 z m 152.25781,0.84766 c -5.25107,0 -9.47852,4.7089 -9.47852,10.55859 v 26.20508 c 0,5.84968 4.22745,10.55859 9.47852,10.55859 5.25107,0 9.47852,-4.70891 9.47852,-10.55859 V 490.375 c 0,-5.84969 -4.22745,-10.55859 -9.47852,-10.55859 z m -331.92383,0.20898 c -4.62894,0 -8.35547,3.72653 -8.35547,8.35547 v 20.73633 c 0,4.62894 3.72653,8.35547 8.35547,8.35547 h 2.2461 c 4.62894,0 8.35546,-3.72653 8.35546,-8.35547 v -20.73633 c 0,-4.62894 -3.72652,-8.35547 -8.35546,-8.35547 z m -202.46094,0.0352 c -5.25107,0 -9.47851,4.7089 -9.47851,10.55859 v 26.20313 c 0,5.84968 4.22744,10.56054 9.47851,10.56054 5.25108,0 9.47852,-4.71086 9.47852,-10.56054 v -26.20313 c 0,-5.84969 -4.22744,-10.55859 -9.47852,-10.55859 z m -272.86328,2.38086 c -3.12117,0 -5.82696,1.71082 -7.23632,4.25 -1.45668,-1.01479 -3.17947,-1.60352 -5.03126,-1.60352 -5.25107,0 -9.47851,4.70891 -9.47851,10.55859 v 26.20508 c 0,5.84969 4.22744,10.5586 9.47851,10.5586 5.25108,0 9.47852,-4.70891 9.47852,-10.5586 v -2.8125 c 0.87093,0.31003 1.80911,0.47852 2.78906,0.47852 h 2.41016 c 4.58328,0 8.27344,-3.68821 8.27344,-8.27149 v -20.53125 c 0,-4.58328 -3.69016,-8.27343 -8.27344,-8.27343 z m 899.0664,0.56054 c -3.1907,0 -5.7598,2.56711 -5.7598,5.75782 v 14.29296 c 0,3.19071 2.5691,5.75977 5.7598,5.75977 h 7.4375 c 3.1907,0 5.7598,-2.56906 5.7598,-5.75977 v -14.29296 c 0,-3.19071 -2.5691,-5.75782 -5.7598,-5.75782 z m -46.9277,12.60547 c -5.2511,0 -9.47854,4.70891 -9.47854,10.5586 v 26.20507 c 0,5.84969 4.22744,10.5586 9.47854,10.5586 5.251,0 9.4785,-4.70891 9.4785,-10.5586 v -26.20507 c 0,-5.84969 -4.2275,-10.5586 -9.4785,-10.5586 z m -217.83596,5.54297 c -5.25107,0 -9.47852,4.70891 -9.47852,10.55859 v 26.20508 c 0,5.84969 4.22745,10.5586 9.47852,10.5586 5.25107,0 9.47851,-4.70891 9.47851,-10.5586 v -26.20508 c 0,-5.84968 -4.22744,-10.55859 -9.47851,-10.55859 z m 51.82617,1.2832 c -5.25107,0 -9.47852,4.70891 -9.47852,10.5586 v 26.20508 c 0,5.84968 4.22745,10.55859 9.47852,10.55859 5.25107,0 9.47851,-4.70891 9.47851,-10.55859 v -26.20508 c 0,-5.84969 -4.22744,-10.5586 -9.47851,-10.5586 z"
       transform="scale(0.26458333)" />
  </g>
  <g
     inkscape:groupmode="layer"
     id="layer5"
     inkscape:label="lettuce"
     style="display:inline"
     transform="translate(-28.042648,-76.21395)">
    <path
       id="lettuce"
       style="display:inline;opacity:1;fill:#008000;stroke:#212121;stroke-width:0;stroke-linecap:square;stroke-linejoin:round;stroke-miterlimit:46.9;stroke-dasharray:none;paint-order:stroke fill markers"
       d="m 158.17383,477.35156 c -17.46576,0 -32.83199,8.52714 -42.29492,21.62696 2.48426,3.46312 6.52107,5.73242 11.12695,5.73242 h 147.48633 c 1.48192,0 2.90543,-0.23495 4.24023,-0.66602 0.95612,0.20964 1.94986,0.32422 2.9707,0.32422 h 135.97852 c 3.20011,6.13696 9.61107,10.31055 17.03711,10.31055 h 149.66016 c 6.98445,0 13.07726,-3.6915 16.43945,-9.23633 h 153.74609 c 3.11932,3.85422 7.88886,6.3125 13.25586,6.3125 h 140.82617 c 6.04166,0 11.32676,-3.11454 14.35157,-7.83008 h 147.24215 c 7.5964,0 13.711,-6.11454 13.711,-13.71094 0,-0.98259 -0.1101,-1.93633 -0.3047,-2.85937 -8.612,-6.26882 -19.199,-10.00391 -30.7129,-10.00391 H 909.30664 c -0.32525,0.11541 -0.67288,0.18181 -0.98633,0.32032 H 769.9668 c -0.22397,-0.13753 -0.49498,-0.19442 -0.72657,-0.32032 H 279.11719 c -0.54545,0.10618 -1.13241,0.092 -1.65235,0.25977 -0.76669,-0.16833 -1.57163,-0.22397 -2.38086,-0.25977 z"
       transform="scale(0.26458333)" />
  </g>
  <g
     inkscape:groupmode="layer"
     id="layer4"
     inkscape:label="Bun"
     style="display:inline"
     transform="translate(-28.042648,-76.21395)">
    <g
       inkscape:label="Top_Bun"
       inkscape:groupmode="layer"
       id="layer1"
       style="display:inline">
      <path
         id="Top_Bun"
         style="fill:#c88437;fill-opacity:1;stroke:#212121;stroke-width:0;stroke-linecap:square;stroke-linejoin:round;stroke-miterlimit:46.9;stroke-dasharray:none;paint-order:stroke fill markers"
         d="M 160.20621,76.213951 A 114.7186,50.522412 0 0 0 45.527048,126.29927 H 274.91219 A 114.7186,50.522412 0 0 0 160.20621,76.213951 Z" />
    </g>
    <g
       inkscape:groupmode="layer"
       id="layer3"
       inkscape:label="Button_bun"
       style="display:inline">
      <path
         id="Button_Bun"
         style="display:inline;opacity:1;fill:#c88437;fill-opacity:1;stroke:#212121;stroke-width:0;stroke-linecap:square;stroke-linejoin:round;stroke-miterlimit:46.9;stroke-dasharray:none;paint-order:stroke fill markers"
         d="m 43.420286,156.84717 v 11.53049 h 0.127643 v 4.10857 c 0,3.74574 4.199628,6.7614 9.415963,6.7614 H 267.60298 c 5.21634,0 9.41597,-3.01566 9.41597,-6.7614 v -4.10857 -4.65665 -6.87384 z" />
    </g>
  </g>
  <g
     inkscape:groupmode="layer"
     id="layer8"
     inkscape:label="seeds"
     style="display:inline"
     transform="translate(-28.042648,-76.21395)">
    <path
       id="Seeds"
       style="opacity:1;fill:#d3bc5f;fill-opacity:1;stroke:#212121;stroke-width:0;stroke-linecap:square;stroke-linejoin:round;stroke-miterlimit:46.9;stroke-dasharray:none;paint-order:stroke fill markers"
       d="m 611.45898,313.95703 a 7.679993,6.2723851 0 0 0 -7.67968,6.27149 7.679993,6.2723851 0 0 0 7.67968,6.27343 7.679993,6.2723851 0 0 0 7.67969,-6.27343 7.679993,6.2723851 0 0 0 -7.67969,-6.27149 z m 108.42969,31.65625 a 7.679993,6.2723851 0 0 0 -7.67969,6.27149 7.679993,6.2723851 0 0 0 7.67969,6.27343 7.679993,6.2723851 0 0 0 7.68164,-6.27343 7.679993,6.2723851 0 0 0 -7.68164,-6.27149 z m -301.47851,15.20508 a 7.679993,6.2723851 0 0 0 -7.67969,6.27148 7.679993,6.2723851 0 0 0 7.67969,6.27344 7.679993,6.2723851 0 0 0 7.67968,-6.27344 7.679993,6.2723851 0 0 0 -7.67968,-6.27148 z m 481.30859,9.24609 a 7.679993,6.2723851 0 0 0 -7.67969,6.27149 7.679993,6.2723851 0 0 0 7.67969,6.27344 7.679993,6.2723851 0 0 0 7.67969,-6.27344 7.679993,6.2723851 0 0 0 -7.67969,-6.27149 z m -82.79687,1.33399 a 7.679993,6.2723851 0 0 0 -7.68165,6.27344 7.679993,6.2723851 0 0 0 7.68165,6.27148 7.679993,6.2723851 0 0 0 7.67968,-6.27148 7.679993,6.2723851 0 0 0 -7.67968,-6.27344 z m -267.23243,0.0664 a 7.679993,6.2723851 0 0 0 -7.67968,6.27344 7.679993,6.2723851 0 0 0 7.67968,6.27149 7.679993,6.2723851 0 0 0 7.67969,-6.27149 7.679993,6.2723851 0 0 0 -7.67969,-6.27344 z m -62.40039,10.86133 a 7.679993,6.2723851 0 0 0 -7.67968,6.27149 7.679993,6.2723851 0 0 0 7.67968,6.27343 7.679993,6.2723851 0 0 0 7.67969,-6.27343 7.679993,6.2723851 0 0 0 -7.67969,-6.27149 z m -228.16797,10.94141 a 7.679993,6.2723851 0 0 0 -7.68164,6.27148 7.679993,6.2723851 0 0 0 7.68164,6.27344 7.679993,6.2723851 0 0 0 7.67969,-6.27344 7.679993,6.2723851 0 0 0 -7.67969,-6.27148 z m 364.48047,4.53711 a 7.679993,6.2723851 0 0 0 -7.68164,6.27148 7.679993,6.2723851 0 0 0 7.68164,6.27344 7.679993,6.2723851 0 0 0 7.67969,-6.27344 7.679993,6.2723851 0 0 0 -7.67969,-6.27148 z m -189.99414,14.71484 a 7.679993,6.2723851 0 0 0 -7.67969,6.27344 7.679993,6.2723851 0 0 0 7.67969,6.27148 7.679993,6.2723851 0 0 0 7.67969,-6.27148 7.679993,6.2723851 0 0 0 -7.67969,-6.27344 z m -167.01953,6.14258 a 7.679993,6.2723851 0 0 0 -7.67969,6.27344 7.679993,6.2723851 0 0 0 7.67969,6.27148 7.679993,6.2723851 0 0 0 7.67969,-6.27148 7.679993,6.2723851 0 0 0 -7.67969,-6.27344 z m 87.17188,0.90039 a 7.679993,6.2723851 0 0 0 -7.67969,6.27344 7.679993,6.2723851 0 0 0 7.67969,6.27148 7.679993,6.2723851 0 0 0 7.68164,-6.27148 7.679993,6.2723851 0 0 0 -7.68164,-6.27344 z m 389.68945,4.01758 a 7.679993,6.2723851 0 0 0 -7.67969,6.27344 7.679993,6.2723851 0 0 0 7.67969,6.27148 7.679993,6.2723851 0 0 0 7.67969,-6.27148 7.679993,6.2723851 0 0 0 -7.67969,-6.27344 z m -221.74024,10.70898 a 7.679993,6.2723851 0 0 0 -7.67968,6.27149 7.679993,6.2723851 0 0 0 7.67968,6.27343 7.679993,6.2723851 0 0 0 7.68164,-6.27343 7.679993,6.2723851 0 0 0 -7.68164,-6.27149 z m 341.73047,2.88867 a 7.679993,6.2723851 0 0 0 -7.67968,6.27149 7.679993,6.2723851 0 0 0 7.67968,6.27344 7.679993,6.2723851 0 0 0 7.67969,-6.27344 7.679993,6.2723851 0 0 0 -7.67969,-6.27149 z m 88.82422,11.47266 a 7.679993,6.2723851 0 0 0 -7.68164,6.27149 7.679993,6.2723851 0 0 0 7.68164,6.27343 7.679993,6.2723851 0 0 0 7.67969,-6.27343 7.679993,6.2723851 0 0 0 -7.67969,-6.27149 z"
       transform="scale(0.26458333)" />
  </g>
</svg>
